<?xml version="1.0" standalone="yes"?>
<svg width="103" height="55">
<path style="fill:#ffffff; stroke:none;" d="M0 0L0 49C11.8383 40.6609 21.7644 28.2356 32 18C37.4843 12.5157 44.6908 7.09618 48 0L0 0z"/>
<path style="fill:#d90800; stroke:none;" d="M48 0C46.3116 2.67222 44.8241 4.94983 44 8C45.9053 7.19235 48.5398 5.24988 50.6767 5.44136C55.1103 5.83865 61.2732 14.9623 64.1705 18.0394C70.9183 25.2056 78.0388 32.0415 85 39C89.4852 43.4835 93.8802 48.8784 100 51C97.2097 45.0166 91.6231 40.6231 87 36L64 13C59.2662 8.26616 54.6177 1.85749 48 0z"/>
<path style="fill:#ffffff; stroke:none;" d="M51 0C55.0636 6.40483 61.6281 11.6281 67 17C74.2282 24.2282 81.1478 32.3454 89 38.8889C92.7088 41.9795 99.4982 43.9305 102 48C103.981 43.2801 103 37.0802 103 32L103 0L51 0z"/>
<path style="fill:#ffffef; stroke:none;" d="M48 5C50.2682 8.31495 51.9338 9.68707 56 10C53.6843 6.82358 51.9977 4.93668 48 5z"/>
<path style="fill:#89170c; stroke:none;" d="M51 4L52 5L51 4z"/>
<path style="fill:#da1412; stroke:none;" d="M43 6L42 10C43.7968 10 43.5215 9.98567 45 9C44.3087 7.61156 44.0154 7.13935 43 6z"/>
<path style="fill:#fffeff; stroke:none;" d="M16 38C18.3057 39.5245 20.133 40.966 22 43L26 41C23.5495 38.5267 22.5497 36.439 22 33C23.1952 34.2228 23.3164 34.42 24 36C25.7057 35.3014 26.8737 33.9638 28 35C29.4591 33.6879 30.1571 32.7691 31 31C32.4785 31.9857 32.2032 32 34 32L32 28C42.6843 31.7328 47.9078 26.7969 44 16C45.6352 16.5451 45.4549 16.3648 46 18L48 18C49.2228 16.8048 49.42 16.6836 51 16C50.3502 14.7003 50.8532 15 49 15C52.1252 15.0987 54.3367 16.3752 57 18C58.1982 16.7548 58.1338 16.9262 60 17C59.7002 19.1059 59.8481 20.8771 60 23C62.1228 22.6933 62.686 22.6179 64 21C65.5982 22.481 66.1083 23.0614 67 25L64 25C64.916 28.8108 66.1989 30.8276 70 32C64.3549 32.7844 60.0996 28.0553 54 28C54.4057 30.0924 54.2167 30.0198 56 31C54.9644 32.1863 54.6614 32.6036 54 34C57.0408 34.8996 59.8309 34.992 63 35C61.4991 37.1131 61.1777 38.4031 61 41L67 41C66.832 38.5975 66.8031 37.5398 65 36C69.3022 34.5719 72.1614 34.103 71 29L75 30L74 33C76.2489 34.1536 76.8465 34.7511 78 37C76.8137 35.8137 76.4721 35.4162 76 34L73 36C74.4934 39.8217 75.8779 42.8273 76 47C84.0326 45.9423 86.4804 51.5934 93.0895 54.2585C96.0954 55.4706 99.8254 54.9996 103 55C102.974 51.8783 102.724 49.0395 102 46C98.1876 46.1362 95.8912 41.8192 92 41C94.8526 45.0541 98.6356 48.1389 100 53C88.0004 41.0004 76.041 28.9589 64 17.0008C59.9231 12.9519 52.5996 10.7187 50 6C44.5014 7.54336 40.949 12.0512 37 16C29.9442 23.0554 21.753 29.833 16 38z"/>
<path style="fill:#861107; stroke:none;" d="M53 6L54 7L53 6z"/>
<path style="fill:#df0006; stroke:none;" d="M41 8C36.2614 12.7386 29.8578 17.3812 28 24C32.9304 21.6662 42.9063 14.0982 41 8z"/>
<path style="fill:#8d0913; stroke:none;" d="M42 10L43 11L42 10z"/>
<path style="fill:#840801; stroke:none;" d="M57 10L58 11L57 10z"/>
<path style="fill:#ffffff; stroke:none;" d="M49 14C49.6498 15.2997 49.1468 15 51 15C49.2575 16.1113 48.8807 16.2705 48 18L46 18C45.2321 16.6858 45.3142 16.7679 44 16C45.1833 20.7987 47.0818 28.3431 40.034 29.4429C37.4119 29.8521 34.5071 28.6258 32 28L34 32L31 31L28 35C26.7569 33.1768 25.7823 34.777 24 36L24 33L22 33C22.2482 36.4695 22.4486 38.9612 26 40L22 43C15.7626 33.1635 2.2012 47.7766 0 55L93 55C88.4924 49.5889 83.3122 45.4351 76 47C75.952 42.6867 75.054 39.7772 73 36C74.3963 35.3387 74.8137 35.0356 76 34C76 35.7968 76.0143 35.5215 77 37C77.6147 34.3463 76.4669 33.7915 74 33C74.9857 31.5215 75 31.7968 75 30L71 29L72 36C69.0042 38.6178 69.0042 45.3822 72 48C69.5819 48.7224 67.5284 48.9481 65 49C66.6778 46.6184 66.9159 44.9134 67 42L61 42C61.077 44.6451 60.9966 46.266 63 48C55.1437 50.3213 52.3995 46.3901 46 43C46.168 45.4025 46.1969 46.4602 48 48C45.5819 48.7224 43.5283 48.9481 41 49C43.417 45.5491 44.4428 39.0084 41 36C44.3406 35.0129 51.0591 33.6899 52.6775 38.1481C54.5071 43.1883 50.2822 46.7786 58 48C58 44.8317 58.4355 41.2695 57.6914 38.1705C57.113 35.762 55.6334 34.4302 56 32L54 28C60.2904 28.1522 63.9236 32.4432 70 33C67.2259 30.5712 65.3526 28.4589 64 25L67 25C66.5354 23.0182 66.2965 22.5944 65 21C63.269 22.006 61.947 22.5465 60 23L60 17C57.8838 16.7193 58.0625 16.3998 57 18C54.5136 15.9961 52.1075 14.7446 49 14z"/>
<path style="fill:#8d080f; stroke:none;" d="M61 14L62 15L61 14z"/>
<path style="fill:#940802; stroke:none;" d="M34 18L35 19L34 18z"/>
<path style="fill:#da1412; stroke:none;" d="M27 22L26 26C27.7968 26 27.5215 25.9857 29 25C28.3087 23.6116 28.0154 23.1394 27 22z"/>
<path style="fill:#dc0003; stroke:none;" d="M25 24C20.2614 28.7386 13.8578 33.3812 12 40C16.8817 37.7177 26.8945 30.0548 25 24z"/>
<path style="fill:#8d0913; stroke:none;" d="M26 26L27 27L26 26z"/>
<path style="fill:#961122; stroke:none;" d="M20 32L21 33L20 32z"/>
<path style="fill:#680c00; stroke:none;" d="M31 35C33.1291 36.2495 34.4944 36.1598 37 36C34.9479 35.1258 33.2528 35.0472 31 35z"/>
<path style="fill:#631602; stroke:none;" d="M39 35L40 36L39 35z"/>
<path style="fill:#980000; stroke:none;" d="M41 35C42.769 35.7789 44.0359 35.9124 46 36C44.231 35.2211 42.9641 35.0876 41 35z"/>
<path style="fill:#5e0900; stroke:none;" d="M46 35C47.506 35.683 48.3148 35.8259 50 36C48.494 35.317 47.6852 35.1741 46 35z"/>
<path style="fill:#cf0804; stroke:none;" d="M50 35C50.6582 40.3917 47.3978 45.9941 54 48C51.767 43.0391 55.3345 37.9532 50 35z"/>
<path style="fill:#930000; stroke:none;" d="M56 35C58.3316 35.9845 60.4567 35.9813 63 36C60.6684 35.0155 58.5434 35.0187 56 35z"/>
<path style="fill:#a00000; stroke:none;" d="M65 35C66.5061 35.683 67.3148 35.8259 69 36C67.494 35.317 66.6852 35.1741 65 35z"/>
<path style="fill:#c00007; stroke:none;" d="M69 35L69 41C69.9511 38.7147 69.9511 37.2853 69 35z"/>
<path style="fill:#4a010d; stroke:none;" d="M70.6667 35.3333C70.2222 35.7778 71.2778 35.7222 71.3333 35.6667C71.7778 35.2222 70.7222 35.2778 70.6667 35.3333z"/>
<path style="fill:#db0c00; stroke:none;" d="M28 47L30 47C30.0138 42.9577 30.414 39.7429 32 36C27.017 37.6539 28.0005 42.4755 28 47z"/>
<path style="fill:#b50000; stroke:none;" d="M37 36L39 40C39.683 38.4939 39.8259 37.6852 40 36L37 36z"/>
<path style="fill:#b10a0c; stroke:none;" d="M43 36L43 49C44.5909 45.2087 44.5909 39.7913 43 36z"/>
<path style="fill:#e50200; stroke:none;" d="M44 36L44 48C45.8944 44.0502 46.0593 39.9022 44 36z"/>
<path style="fill:#c50000; stroke:none;" d="M45 36L45 40C45.7102 38.2405 45.7102 37.7595 45 36z"/>
<path style="fill:#fffcfc; stroke:none;" d="M46 36L46 42C51.3789 41.1022 51.3789 36.8978 46 36z"/>
<path style="fill:#c10000; stroke:none;" d="M58 36L58 41C58.683 39.4939 58.8259 38.6852 59 37C59.9857 38.4785 60 38.2032 60 40C60.683 38.4939 60.8259 37.6852 61 36L58 36z"/>
<path style="fill:#e30816; stroke:none;" d="M67 36L68 39C68.6848 37.7517 68.7488 37.4516 69 36L67 36z"/>
<path style="fill:#ff0005; stroke:none;" d="M59 37C58.6905 40.709 58.8714 44.2897 59 48L62 41L59 37z"/>
<path style="fill:#900c01; stroke:none;" d="M67 37L67 40C67.6961 38.4463 67.6961 38.5537 67 37z"/>
<path style="fill:#da1412; stroke:none;" d="M11 38L10 42C11.7968 42 11.5215 41.9857 13 41C12.3087 39.6116 12.0154 39.1394 11 38z"/>
<path style="fill:#790400; stroke:none;" d="M30 38L31 39L30 38z"/>
<path style="fill:#b00000; stroke:none;" d="M27 39L27 45C27.9511 42.7147 27.9511 41.2853 27 39z"/>
<path style="fill:#fa0700; stroke:none;" d="M68 39L66 41C66.9725 42.2699 67.7301 43.0275 69 44C69.1742 41.7319 69.1444 40.9185 68 39z"/>
<path style="fill:#d50205; stroke:none;" d="M9 40C6.54996 42.699 5.14014 44.3466 5 48C7.88581 45.8026 10.1711 43.7385 9 40z"/>
<path style="fill:#6b0e18; stroke:none;" d="M62 41C63.5061 41.683 64.3148 41.8259 66 42C64.494 41.317 63.6852 41.1741 62 41z"/>
<path style="fill:#8d0913; stroke:none;" d="M10 42L11 43L10 42z"/>
<path style="fill:#ac0107; stroke:none;" d="M46 42C47.1394 43.0154 47.6116 43.3087 49 44C48.0198 42.2167 48.0924 42.4057 46 42z"/>
<path style="fill:#c30000; stroke:none;" d="M58 42L58 49L61 49L61 42C60.1258 44.0521 60.0472 45.7472 60 48L58 42z"/>
<path style="fill:#9f1317; stroke:none;" d="M67 42L67 49C68.0595 46.4657 68.0595 44.5343 67 42z"/>
<path style="fill:#d30700; stroke:none;" d="M69 42C68.428 44.3772 68.1095 46.558 68 49L70 49C69.9813 46.4567 69.9845 44.3315 69 42z"/>
<path style="fill:#c10400; stroke:none;" d="M45 43L44 49L47 49C46.4394 46.8976 45.9509 44.9407 45 43z"/>
<path style="fill:#a00407; stroke:none;" d="M30 45L29 48L34 49C32.7446 47.4269 31.5762 46.2508 30 45z"/>
<path style="fill:#d61411; stroke:none;" d="M0 52C2.76082 50.2872 4.05434 49.1128 5 46C1.98802 47.5047 0.92536 48.7596 0 52z"/>
<path style="fill:#550000; stroke:none;" d="M39 46L40 47L39 46z"/>
<path style="fill:#830600; stroke:none;" d="M37.6667 47.3333C37.2222 47.7778 38.2778 47.7222 38.3333 47.6667C38.7778 47.2222 37.7222 47.2778 37.6667 47.3333z"/>
<path style="fill:#680300; stroke:none;" d="M34 48C35.2484 48.6848 35.5484 48.7488 37 49C35.7516 48.3152 35.4516 48.2512 34 48z"/>
<path style="fill:#6e0200; stroke:none;" d="M41.6667 48.3333C41.2222 48.7778 42.2778 48.7222 42.3333 48.6667C42.7778 48.2222 41.7222 48.2778 41.6667 48.3333z"/>
<path style="fill:#700000; stroke:none;" d="M47 48L48 49L47 48z"/>
<path style="fill:#930000; stroke:none;" d="M52 48C54.0521 48.8742 55.7472 48.9528 58 49C55.9479 48.1257 54.2528 48.0472 52 48z"/>
<path style="fill:#6b0508; stroke:none;" d="M61.6667 48.3333C61.2222 48.7778 62.2778 48.7222 62.3333 48.6667C62.7778 48.2222 61.7222 48.2778 61.6667 48.3333z"/>
<path style="fill:#800001; stroke:none;" d="M65.6667 48.3333C65.2222 48.7778 66.2778 48.7222 66.3333 48.6667C66.7778 48.2222 65.7222 48.2778 65.6667 48.3333z"/>
<path style="fill:#5f0211; stroke:none;" d="M70.6667 48.3333C70.2222 48.7778 71.2778 48.7222 71.3333 48.6667C71.7778 48.2222 70.7222 48.2778 70.6667 48.3333z"/>
<path style="fill:#8d1a1b; stroke:none;" d="M95 48L96 49L95 48z"/>
<path style="fill:#85170f; stroke:none;" d="M2 50L3 51L2 50z"/>
<path style="fill:#e2ffff; stroke:none;" d="M32 51C34.6127 52.0977 37.1645 51.9928 40 52C37.3615 50.4912 35.0157 50.8313 32 51z"/>
<path style="fill:#deffff; stroke:none;" d="M52 51C55.4324 52.4403 59.2998 52 63 52C59.6731 50.0999 55.7741 50.9713 52 51z"/>
<path style="fill:#8b0a00; stroke:none;" d="M97 50L98 51L97 50z"/>
<path style="fill:#a50013; stroke:none;" d="M98 51C98.5451 52.6352 98.3648 52.4549 100 53L100 51L98 51z"/>
</svg>
